:SAMPLES-PER-SECOND 30
:FULLY-SPECIFIED
:DEGREES
435
root  24.4041 31.3641 2.31199 9.72511 81.7794 10.3254
RightUpLeg  -22.7615 -5.10778 -15.9204
RightLeg  71.5114 2.20181 6.5004
RightFoot  -40.3834 2.2356 9.68716
RightToes  7.56698e-010 0 -3.6325e-017
Spine  39.0455 4.83271 -31.5628
Spine1  -6.04729 -12.7297 46.3658
HEad  -59.3045 35.6764 -56.8999
LeftShoulder1  -4.58756 17.8744 -25.2722
LeftArm  -62.5525 -80.2372 -1.23921
LeftForeArm  -21.7759 -62.533 -24.4533
LeftHand  -1.19754 12.5188 -17.4851
RightShoulder  -10.2959 -21.4204 49.1972
RightArm  -59.5718 87.8205 -9.90927
RightForeArm  -5.60799 75.9614 61.7265
RightHand  -1.56829 10.9004 -11.5197
LeftUpLeg  -51.0948 16.0025 6.76813
LeftLeg  49.1742 -1.88011 -1.88623
LeftFoot  3.55834 0.690832 -5.4253
LeftToes  -2.88401e-009 5.30678e-011 -1.08654e-010
436
root  25.2863 30.9477 1.7321 7.79645 80.5038 8.77965
RightUpLeg  -21.3465 -3.25127 -17.4828
RightLeg  72.0234 2.23099 6.81738
RightFoot  -42.0594 2.70517 10.8766
RightToes  7.56698e-010 0 -3.6325e-017
Spine  38.732 5.42259 -32.292
Spine1  -6.07658 -12.1806 45.6766
HEad  -59.7566 35.8853 -57.3692
LeftShoulder1  -4.30456 17.162 -24.8897
LeftArm  -59.8487 -79.339 -3.5425
LeftForeArm  -21.9979 -62.5306 -24.467
LeftHand  -1.1946 12.5457 -17.3594
RightShoulder  -11.0631 -22.994 48.4926
RightArm  2.70811 87.4555 53.7521
RightForeArm  -4.14815 76.1724 63.4761
RightHand  -1.7025 11.859 -11.8043
LeftUpLeg  -52.1658 17.2303 6.18046
LeftLeg  54.65 -1.78147 -2.1912
LeftFoot  0.656969 0.369524 -3.56059
LeftToes  -2.88401e-009 5.30678e-011 -1.08654e-010
437
root  26.1967 30.7903 1.13769 4.56448 80.3574 5.89255
RightUpLeg  -18.883 -1.64994 -18.414
RightLeg  70.9649 2.39016 6.89629
RightFoot  -42.933 3.28654 12.625
RightToes  7.56698e-010 0 -3.6325e-017
Spine  38.3976 5.28239 -32.2286
Spine1  -5.37997 -12.4237 45.0736
HEad  -60.6589 35.6643 -57.556
LeftShoulder1  -4.42036 17.1991 -25.6627
LeftArm  -58.1087 -79.5382 -4.74733
LeftForeArm  -21.6576 -62.7419 -24.6857
LeftHand  -1.31139 13.0293 -17.9295
RightShoulder  -10.494 -21.8345 48.9883
RightArm  -14.7582 87.0374 35.3785
RightForeArm  -5.03948 76.0497 62.4395
RightHand  -1.82254 11.5856 -12.7938
LeftUpLeg  -52.3632 17.3372 5.85749
LeftLeg  58.5929 -1.47553 -2.05187
LeftFoot  -2.58754 0.192331 -2.31021
LeftToes  -2.88401e-009 5.30678e-011 -1.08654e-010
438
root  27.1291 30.9297 0.638713 3.63695 80.9477 4.98015
RightUpLeg  -16.0894 -0.108651 -19.0132
RightLeg  68.8289 2.40011 6.12446
RightFoot  -42.4185 3.79182 14.6283
RightToes  7.56698e-010 0 -3.6325e-017
Spine  37.6759 5.2756 -32.8306
Spine1  -4.76722 -12.7598 45.842
HEad  -60.0514 35.0923 -57.6552
LeftShoulder1  -4.61429 17.2891 -26.8927
LeftArm  -58.4196 -80.1865 -3.31561
LeftForeArm  -22.3744 -62.8451 -24.8579
LeftHand  -1.29023 13.2112 -17.1998
RightShoulder  -9.78498 -20.3954 49.6308
RightArm  -49.233 86.4338 -0.44321
RightForeArm  -7.2407 75.8711 61.1452
RightHand  -1.79176 12.1601 -12.1919
LeftUpLeg  -51.6865 16.5476 5.20968
LeftLeg  60.4244 -1.22644 -1.75091
LeftFoot  -4.90504 0.0829233 -0.964714
LeftToes  -2.88401e-009 5.30678e-011 -1.08654e-010
439
root  28.0589 31.3378 0.175143 1.89107 81.3185 2.96539
RightUpLeg  -13.6333 1.94195 -18.9878
RightLeg  66.0107 2.2033 4.79741
RightFoot  -39.9638 4.1566 17.2771
RightToes  7.56698e-010 0 -3.6325e-017
Spine  37.0167 5.10471 -33.2033
Spine1  -5.38163 -12.5812 46.324
HEad  -60.4184 35.3163 -58.5364
LeftShoulder1  -4.5323 16.9168 -27.2264
LeftArm  -56.4729 -79.8464 -4.07281
LeftForeArm  -22.2129 -62.7604 -24.7475
LeftHand  -1.35264 13.176 -18.1484
RightShoulder  -10.1295 -21.0947 49.3114
RightArm  -37.9775 86.1671 11.0712
RightForeArm  -7.66704 75.8075 60.6657
RightHand  -1.8195 12.2333 -12.3389
LeftUpLeg  -50.2669 16.1099 4.6448
LeftLeg  60.7049 -1.0831 -1.4928
LeftFoot  -6.87877 0.0456611 -0.120592
LeftToes  -2.88401e-009 5.30678e-011 -1.08654e-010
440
root  28.9751 31.959 -0.21176 -0.852081 82.3564 0.229599
RightUpLeg  -10.8956 3.93523 -18.4641
RightLeg  63.2099 1.82708 3.38052
RightFoot  -35.7214 4.40398 21.3777
RightToes  7.56698e-010 0 -3.6325e-017
Spine  36.8134 4.75858 -33.2964
Spine1  -6.17631 -12.5687 46.7663
HEad  -60.7036 35.805 -58.2262
LeftShoulder1  -4.52581 16.9697 -27.0406
LeftArm  -54.7221 -79.4605 -5.07937
LeftForeArm  -22.63 -62.9867 -25.043
LeftHand  -1.22842 12.9707 -16.8907
RightShoulder  -10.458 -21.7784 48.9669
RightArm  -30.1413 85.5929 19.0133
RightForeArm  -6.07924 75.9939 62.068
RightHand  -1.77543 11.1362 -12.802
LeftUpLeg  -47.7488 14.8868 4.38279
LeftLeg  59.5203 -1.003 -1.26536
LeftFoot  -8.35885 0.0391833 0.40664
LeftToes  -2.88401e-009 5.30678e-011 -1.08654e-010
